<svg width="15" height="15" viewBox="0 0 15 15" fill="none" xmlns="http://www.w3.org/2000/svg">
<path d="M1.875 2.8125C1.875 2.29473 2.29473 1.875 2.8125 1.875H12.1875C12.7053 1.875 13.125 2.29473 13.125 2.8125C13.125 3.33027 12.7053 3.75 12.1875 3.75H2.8125C2.29473 3.75 1.875 3.33027 1.875 2.8125Z" fill="black"/>
<path d="M1.875 7.5C1.875 6.98223 2.29473 6.5625 2.8125 6.5625H12.1875C12.7053 6.5625 13.125 6.98223 13.125 7.5C13.125 8.01777 12.7053 8.4375 12.1875 8.4375H2.8125C2.29473 8.4375 1.875 8.01777 1.875 7.5Z" fill="black"/>
<path d="M2.8125 11.25C2.29473 11.25 1.875 11.6697 1.875 12.1875C1.875 12.7053 2.29473 13.125 2.8125 13.125H12.1875C12.7053 13.125 13.125 12.7053 13.125 12.1875C13.125 11.6697 12.7053 11.25 12.1875 11.25H2.8125Z" fill="black"/>
</svg>
