<svg width="12" height="12" viewBox="0 0 12 12" fill="none" xmlns="http://www.w3.org/2000/svg">
<path fill-rule="evenodd" clip-rule="evenodd" d="M9.24998 3.25C9.24998 5.04492 7.79491 6.49999 5.99999 6.49999C4.20507 6.49999 2.75 5.04492 2.75 3.25C2.75 1.45507 4.20507 0 5.99999 0C7.79491 0 9.24998 1.45507 9.24998 3.25ZM7.74999 3.25C7.74999 4.21649 6.96649 4.99999 5.99999 4.99999C5.03349 4.99999 4.24999 4.21649 4.24999 3.25C4.24999 2.2835 5.03349 1.5 5.99999 1.5C6.96649 1.5 7.74999 2.2835 7.74999 3.25Z" fill="black"/>
<path d="M1.5 10.75C1.5 9.50735 2.50736 8.49999 3.74999 8.49999H8.24999C9.49263 8.49999 10.5 9.50735 10.5 10.75V11.25C10.5 11.6642 10.8358 12 11.25 12C11.6642 12 12 11.6642 12 11.25V10.75C12 8.67892 10.3211 6.99999 8.24999 6.99999H3.74999C1.67893 6.99999 0 8.67892 0 10.75V11.25C0 11.6642 0.335786 12 0.749999 12C1.16421 12 1.5 11.6642 1.5 11.25V10.75Z" fill="black"/>
</svg>
